<svg id="Ebene_1" data-name="Ebene 1" xmlns="http://www.w3.org/2000/svg" viewBox="0 0 625.59 595.28"><defs><style>.cls-1{fill:#7f1c34;}.cls-2{fill:#ae263c;}</style></defs><title>20190202_LOGO_DIHEI_Neutral</title><path class="cls-1" d="M163,259V403.65l-26.32.2L135,393.24a38.64,38.64,0,0,1-29.17,12.45q-20.79,0-34.06-15.2T58.52,352.65q0-22.63,13.25-37.83t34.06-15.2a38.45,38.45,0,0,1,27.74,11V259Zm-38,116.18a26.17,26.17,0,0,0,8.66-11.73V341.84A26.59,26.59,0,0,0,124.8,330a21.09,21.09,0,0,0-13-4.48,21.61,21.61,0,0,0-17.24,7.75q-6.62,7.75-6.62,19.37t6.62,19.28a21.74,21.74,0,0,0,17.24,7.65A21.26,21.26,0,0,0,124.91,375.19Z"/><path class="cls-2" d="M201.43,263.9a16.49,16.49,0,0,1,0-23.66,16.23,16.23,0,0,1,11.73-4.89,16.46,16.46,0,0,1,11.93,4.89,16.52,16.52,0,0,1,0,23.66,16.43,16.43,0,0,1-11.93,4.9A16.2,16.2,0,0,1,201.43,263.9Z"/><path class="cls-1" d="M351.4,310.43q11,10.81,11,28.76v64.46H332.63V342.86a16.1,16.1,0,0,0-5.3-12.54q-5.31-4.8-13.67-4.79a21.09,21.09,0,0,0-14.78,5.5,17.58,17.58,0,0,0-6,13.47v59.15H263.08V268h29.78v44.08a39.52,39.52,0,0,1,29.58-12.45Q340.38,299.62,351.4,310.43Z"/><path class="cls-1" d="M487.64,361.22H418.5q2.65,21.61,22.43,21.62a25.22,25.22,0,0,0,13-3.16q5.4-3.17,10.7-10.91l21,10.4a43.46,43.46,0,0,1-17.33,19.48,50.62,50.62,0,0,1-26.72,7q-25.71,0-39.17-14.59t-13.46-38.45q0-23.25,13.87-38.24t37.74-15q22,0,34.87,14.38t12.85,38.65A64.47,64.47,0,0,1,487.64,361.22Zm-68.53-20h41q-3.27-18.56-20-18.56Q423.18,322.67,419.11,341.23Z"/><path class="cls-1" d="M517.21,301.66H547v102H517.21Z"/><path class="cls-2" d="M210.93,86.79,58.64,200.28V312.52c5.85-12.6,18.43-20.9,30-22.79V226.07A20.91,20.91,0,0,1,97,209.35l113.83-85.49L323.08,208a23.72,23.72,0,0,1,9.74,19.17v61.71c9.06,0,24.93,8,30,17.52V199.81Z"/><polygon class="cls-1" points="198.25 279.59 228.03 279.59 227.78 403.15 198 403.15 198.25 279.59"/><path class="cls-2" d="M136.15,244.16a16.52,16.52,0,0,1,0-23.66,16.26,16.26,0,0,1,11.73-4.89,16.45,16.45,0,0,1,11.93,4.89,16.49,16.49,0,0,1,0,23.66,16.42,16.42,0,0,1-11.93,4.9A16.23,16.23,0,0,1,136.15,244.16Z"/><path class="cls-2" d="M265.36,253.16a16.49,16.49,0,0,1,0-23.66,16.22,16.22,0,0,1,11.72-4.89A16.49,16.49,0,0,1,289,229.5a16.52,16.52,0,0,1,0,23.66,16.46,16.46,0,0,1-11.94,4.9A16.19,16.19,0,0,1,265.36,253.16Z"/><path class="cls-2" d="M520.35,285.82a16.49,16.49,0,0,1,0-23.66,16.23,16.23,0,0,1,11.73-4.89A16.46,16.46,0,0,1,544,262.16a16.49,16.49,0,0,1,0,23.66,16.43,16.43,0,0,1-11.93,4.9A16.2,16.2,0,0,1,520.35,285.82Z"/></svg>