<?xml version="1.0" encoding="UTF-8" standalone="no"?>
<!DOCTYPE svg PUBLIC "-//W3C//DTD SVG 1.1//EN" "http://www.w3.org/Graphics/SVG/1.1/DTD/svg11.dtd">
<svg width="100%" height="100%" viewBox="0 0 491 394" version="1.1" xmlns="http://www.w3.org/2000/svg" xmlns:xlink="http://www.w3.org/1999/xlink" xml:space="preserve" xmlns:serif="http://www.serif.com/" style="fill-rule:evenodd;clip-rule:evenodd;stroke-linejoin:round;stroke-miterlimit:2;">
    <path d="M104.68,172.22L104.68,316.85L78.37,317.05L76.74,306.45C69.245,314.571 58.619,319.103 47.57,318.89C33.703,318.89 22.35,313.827 13.51,303.7C4.67,293.573 0.25,280.96 0.25,265.86C0.25,250.773 4.67,238.16 13.51,228.02C22.35,217.88 33.703,212.817 47.57,212.83C57.916,212.616 67.922,216.584 75.31,223.83L75.31,172.22L104.68,172.22ZM66.68,288.4C70.621,285.389 73.627,281.321 75.35,276.67L75.35,255.05C73.601,250.359 70.56,246.257 66.58,243.22C62.857,240.303 58.259,238.722 53.53,238.73C46.904,238.534 40.542,241.394 36.29,246.48C31.87,251.653 29.66,258.113 29.66,265.86C29.66,273.607 31.87,280.03 36.29,285.13C40.571,290.167 46.923,292.985 53.53,292.78C58.265,292.819 62.879,291.277 66.64,288.4L66.68,288.4Z" style="fill:rgb(35,49,98);fill-rule:nonzero;"/>
    <path d="M143.16,177.11C139.971,174.002 138.171,169.733 138.171,165.28C138.171,160.827 139.971,156.558 143.16,153.45C146.242,150.295 150.479,148.525 154.89,148.55C159.366,148.493 163.677,150.263 166.82,153.45C170.016,156.554 171.822,160.825 171.822,165.28C171.822,169.735 170.016,174.006 166.82,177.11C163.676,180.294 159.364,182.061 154.89,182C150.48,182.029 146.243,180.262 143.16,177.11Z" style="fill:rgb(59,107,179);fill-rule:nonzero;"/>
    <path d="M293.13,223.64C300.463,230.847 304.13,240.433 304.13,252.4L304.13,316.85L274.37,316.85L274.37,256.07C274.543,251.315 272.601,246.72 269.07,243.53C265.53,240.33 260.973,238.73 255.4,238.73C249.945,238.586 244.641,240.562 240.61,244.24C236.734,247.627 234.538,252.553 234.61,257.7L234.61,316.85L204.82,316.85L204.82,181.2L234.6,181.2L234.6,225.27C242.252,217.135 253.004,212.612 264.17,212.83C276.143,212.83 285.797,216.433 293.13,223.64Z" style="fill:rgb(35,49,98);fill-rule:nonzero;"/>
    <path d="M429.38,274.43L360.23,274.43C361.997,288.837 369.477,296.043 382.67,296.05C387.193,296.176 391.667,295.081 395.62,292.88C399.207,290.78 402.777,287.153 406.33,282L427.33,292.41C423.677,300.508 417.627,307.294 410,311.85C402.253,316.517 393.347,318.85 383.28,318.85C366.153,318.85 353.1,313.99 344.12,304.27C335.14,294.55 330.653,281.733 330.66,265.82C330.66,250.32 335.283,237.573 344.53,227.58C353.777,217.587 366.353,212.587 382.26,212.58C396.927,212.58 408.553,217.37 417.14,226.95C425.727,236.53 430.013,249.433 430,265.66C429.992,268.594 429.785,271.524 429.38,274.43ZM360.85,254.43L401.85,254.43C399.683,242.05 393.017,235.863 381.85,235.87C370.57,235.877 363.57,242.067 360.85,254.44L360.85,254.43Z" style="fill:rgb(35,49,98);fill-rule:nonzero;"/>
    <rect x="459" y="214.87" width="29.78" height="102" style="fill:rgb(35,49,98);fill-rule:nonzero;"/>
    <path d="M152.67,0L0.38,113.48L0.38,225.73C6.22,213.13 18.8,204.83 30.38,202.94L30.38,139.28C30.382,132.707 33.482,126.505 38.74,122.56L152.57,37.06L264.81,121.15C270.932,125.611 274.56,132.745 274.56,140.32L274.56,202C283.62,202 299.49,210 304.56,219.51L304.56,113L152.67,0Z" style="fill:rgb(52,102,175);fill-rule:nonzero;"/>
    <path d="M139.98,192.8L169.76,192.8L169.52,316.35L139.74,316.35L139.98,192.8Z" style="fill:rgb(35,49,98);fill-rule:nonzero;"/>
    <path d="M77.89,157.37C74.694,154.266 72.888,149.995 72.888,145.54C72.888,141.085 74.694,136.814 77.89,133.71C80.97,130.552 85.208,128.782 89.62,128.81C94.096,128.754 98.406,130.524 101.55,133.71C104.746,136.814 106.552,141.085 106.552,145.54C106.552,149.995 104.746,154.266 101.55,157.37C98.405,160.553 94.094,162.32 89.62,162.26C85.21,162.292 80.971,160.525 77.89,157.37Z" style="fill:rgb(59,107,179);fill-rule:nonzero;"/>
    <path d="M207.09,166.37C203.894,163.266 202.088,158.995 202.088,154.54C202.088,150.085 203.894,145.814 207.09,142.71C210.17,139.552 214.408,137.782 218.82,137.81C223.296,137.754 227.606,139.524 230.75,142.71C233.946,145.814 235.752,150.085 235.752,154.54C235.752,158.995 233.946,163.266 230.75,166.37C227.605,169.553 223.294,171.32 218.82,171.26C214.41,171.292 210.171,169.525 207.09,166.37Z" style="fill:rgb(59,107,179);fill-rule:nonzero;"/>
    <path d="M462.09,199C458.894,195.896 457.088,191.625 457.088,187.17C457.088,182.715 458.894,178.444 462.09,175.34C465.167,172.183 469.402,170.413 473.81,170.44C478.289,170.382 482.603,172.153 485.75,175.34C488.939,178.448 490.739,182.717 490.739,187.17C490.739,191.623 488.939,195.892 485.75,199C482.602,202.185 478.288,203.952 473.81,203.89C469.403,203.921 465.168,202.154 462.09,199Z" style="fill:rgb(59,107,179);fill-rule:nonzero;"/>
</svg>
